<?xml version="1.0" encoding="UTF-8"?>
<svg width="256" height="256" version="1.1"
     xmlns="http://www.w3.org/2000/svg"
     xmlns:xlink="http://www.w3.org/1999/xlink">
  <defs>
    <linearGradient id="Gradient" x1="0" x2="0" y1="0" y2="1">
      <stop offset="0%" style="stop-color:#1C71D8;stop-opacity:1" />
      <stop offset="100%" style="stop-color:#2EC27E;stop-opacity:1" />
    </linearGradient>
    <filter id="alpha-to-white">
      <feColorMatrix in="SourceGraphic" type="matrix"
                     values="0 0 0 1 0
                             0 0 0 1 0
                             0 0 0 1 0
                             0 0 0 1 0"/>
    </filter>
    <g id="child-svg">
<svg xmlns="http://www.w3.org/2000/svg" height="16px" viewBox="0 0 16 16" width="16px"><g fill="#222222"><path d="m 4.5 6 c -0.277344 0 -0.5 0.222656 -0.5 0.5 s 0.222656 0.5 0.5 0.5 h 6 c 0.277344 0 0.5 -0.222656 0.5 -0.5 s -0.222656 -0.5 -0.5 -0.5 z m 0 2 c -0.277344 0 -0.5 0.222656 -0.5 0.5 s 0.222656 0.5 0.5 0.5 h 5 c 0.277344 0 0.5 -0.222656 0.5 -0.5 s -0.222656 -0.5 -0.5 -0.5 z m 0 2 c -0.277344 0 -0.5 0.222656 -0.5 0.5 s 0.222656 0.5 0.5 0.5 h 6 c 0.277344 0 0.5 -0.222656 0.5 -0.5 s -0.222656 -0.5 -0.5 -0.5 z m 0 2 c -0.277344 0 -0.5 0.222656 -0.5 0.5 s 0.222656 0.5 0.5 0.5 h 3 c 0.277344 0 0.5 -0.222656 0.5 -0.5 s -0.222656 -0.5 -0.5 -0.5 z m 0 0"/><path d="m 3 1 c -1.089844 0 -2 0.910156 -2 2 v 11 c 0 1.089844 0.910156 2 2 2 h 9 c 1.089844 0 2 -0.910156 2 -2 v -11 c 0 -1.089844 -0.910156 -2 -2 -2 v 13 h -9 z m 0 0"/><path d="m 4.492188 -0.0078125 c -0.277344 0.00390625 -0.496094 0.2304685 -0.492188 0.5078125 v 3 c 0 0.273438 0.222656 0.5 0.5 0.5 s 0.5 -0.226562 0.5 -0.5 v -3 c 0 -0.136719 -0.050781 -0.265625 -0.148438 -0.359375 c -0.09375 -0.0976562 -0.222656 -0.1484375 -0.359374 -0.1484375 z m 2 0 c -0.277344 0.00390625 -0.496094 0.2304685 -0.492188 0.5078125 v 3 c 0 0.273438 0.222656 0.5 0.5 0.5 s 0.5 -0.226562 0.5 -0.5 v -3 c 0 -0.136719 -0.050781 -0.265625 -0.148438 -0.359375 c -0.09375 -0.0976562 -0.222656 -0.1484375 -0.359374 -0.1484375 z m 2 0 c -0.277344 0.00390625 -0.496094 0.2304685 -0.492188 0.5078125 v 3 c 0 0.273438 0.222656 0.5 0.5 0.5 s 0.5 -0.226562 0.5 -0.5 v -3 c 0 -0.136719 -0.050781 -0.265625 -0.148438 -0.359375 c -0.09375 -0.0976562 -0.222656 -0.1484375 -0.359374 -0.1484375 z m 2 0 c -0.277344 0.00390625 -0.496094 0.2304685 -0.492188 0.5078125 v 3 c 0 0.273438 0.222656 0.5 0.5 0.5 s 0.5 -0.226562 0.5 -0.5 v -3 c 0 -0.136719 -0.050781 -0.265625 -0.148438 -0.359375 c -0.09375 -0.0976562 -0.222656 -0.1484375 -0.359374 -0.1484375 z m 0 0"/></g></svg>
</g>
  </defs>
  <rect
      width="256"
      height="256"
      fill="url(#Gradient)"
      ry="128"
      x="0"
      y="0" />
  <use xlink:href="#child-svg" filter="url(#alpha-to-white)"
       transform="matrix(8,0,0,8,64,64)" />
</svg>
